<svg aria-hidden="true" style="width:0;height:0;position:absolute;overflow:hidden" xmlns="http://www.w3.org/2000/svg"><defs><symbol id="icon-arrow-right" viewBox="0 0 43 32"><path fill="none" stroke="#6c6b6b" style="stroke:var(--color1,#6c6b6b)" stroke-linejoin="round" stroke-linecap="round" stroke-width="2.667" d="M8.889 16h24.889M21.333 6.667 33.777 16l-12.444 9.333"/></symbol><symbol id="icon-leaf" viewBox="0 0 32 32"><path fill="#7ec384" style="fill:var(--color2,#7ec384)" d="M27.997 4v2.667c0 12.836-7.164 18.667-16 18.667H9.461c.283-4.016 1.533-6.447 4.797-9.335 1.605-1.42 1.469-2.24.679-1.769-5.445 3.24-8.151 7.619-8.271 14.611l-.004.493H3.995c0-1.817.155-3.467.461-4.976-.307-1.725-.461-4.067-.461-7.024 0-7.364 5.969-13.333 13.333-13.333 2.667 0 5.335 1.333 10.668 0z"/></symbol><symbol id="icon-logo" viewBox="0 0 32 32"><path d="M8.222 4.36a13.994 13.994 0 0 1 19.786 4.442A13.992 13.992 0 0 1 30 15.999v.066c-1.766-.403-3.876-.686-5.998-.523-1.334.103-2.703.386-4 .945a3.998 3.998 0 0 0-1.072-2.588c-.67-.95-1.68-2.39-.3-3.64a21.75 21.75 0 0 0 3.76-4.4A11.923 11.923 0 0 0 16 3.999h-.37l.05.18.059.107c.834 1.52 1.738 3.166 1.191 5.443-.436 1.823-2.139 2.4-3.405 2.828l-.035.012a4.46 4.46 0 0 0-1.23.53c-.5.67-.36 1.34-.1 2.34a3.635 3.635 0 0 1-.16 3.11 2.622 2.622 0 0 1-2 1.13 2 2 0 0 0-1.7.92c-.8 1.07-.55 3.11-.39 4.24a11.92 11.92 0 0 0 7.027 3.107l.041.003a9.876 9.876 0 0 0-.452 1.972A13.998 13.998 0 0 1 2.948 10.937a13.999 13.999 0 0 1 5.274-6.578zm10.155 22.945C19.15 28.114 20.556 29 23 29c4.294 0 5.638-5.53 6.249-8.043.1-.413.18-.745.251-.957.152-.454.543-.79.982-1.044.69-.396.706-1.04-.064-1.242-3.629-.951-9.03-1.482-12.418 1.905-1.404 1.404-1.382 3.244-1.093 4.587.058-.082.117-.163.178-.245 1.574-2.13 3.879-4.11 6.92-5.168a.746.746 0 0 1 .934.469.747.747 0 0 1-.442.947c-2.71.943-4.78 2.713-6.207 4.644-1.424 1.928-2.17 3.967-2.291 5.422a.75.75 0 0 0 1.497.032c.07-.907.36-1.951.88-3.003z"/></symbol><symbol id="icon-burger-menu" viewBox="0 0 32 32"><path stroke-linejoin="round" stroke-linecap="round" stroke-width="1.524" d="M4 16h24M4 8h24M4 24h24"/></symbol><symbol id="icon-email" viewBox="0 0 32 32"><path fill="#fff" style="fill:var(--color3,#fff)" d="M32 16c0 8.837-7.163 16-16 16S0 24.837 0 16 7.163 0 16 0s16 7.163 16 16z"/><path fill="#5dc381" style="fill:var(--color4,#5dc381)" d="M25 16.13c-.15.01-.29.06-.39.17l-1 1 2.05 2 1-1c.22-.21.22-.56 0-.77l-1.24-1.23a.554.554 0 0 0-.38-.17zm-1.96 1.75L17 23.94V26h2.06l6.06-6.07zM24 8H8a2 2 0 0 0-2 2v12a2 2 0 0 0 2 2h7v-.89l8.24-8.22c.47-.49 1.12-.76 1.8-.76.34 0 .68.06 1 .19V10c0-1.12-.92-2-2.04-2zm0 4-8 5-8-5v-2l8 5 8-5z"/></symbol><symbol id="icon-phone" viewBox="0 0 32 32"><path fill="#fff" style="fill:var(--color3,#fff)" d="M32 16c0 8.837-7.163 16-16 16S0 24.837 0 16 7.163 0 16 0s16 7.163 16 16z"/><path fill="#5dc381" style="fill:var(--color4,#5dc381)" d="M20.552 26.133c-1.44-.053-5.521-.617-9.795-4.89-4.273-4.274-4.836-8.354-4.89-9.795-.08-2.196 1.602-4.329 3.545-5.162.234-.101.49-.139.744-.112s.495.121.701.271c1.6 1.166 2.704 2.93 3.652 4.317a1.503 1.503 0 0 1-.256 1.986l-1.951 1.449a.481.481 0 0 0-.142.616c.442.803 1.228 1.999 2.128 2.899s2.153 1.738 3.012 2.23a.486.486 0 0 0 .644-.162l1.27-1.933a1.503 1.503 0 0 1 2.056-.332c1.407.974 3.049 2.059 4.251 3.598a1.473 1.473 0 0 1 .189 1.485c-.837 1.953-2.955 3.616-5.158 3.535z"/></symbol><symbol id="icon-email-header" viewBox="0 0 32 32"><path fill="#5dc381" style="fill:var(--color3,#5dc381)" d="M32 16c0 8.837-7.163 16-16 16S0 24.837 0 16 7.163 0 16 0s16 7.163 16 16z"/><path fill="#fff" style="fill:var(--color4,#fff)" d="M25 16.13c-.15.01-.29.06-.39.17l-1 1 2.05 2 1-1c.22-.21.22-.56 0-.77l-1.24-1.23a.554.554 0 0 0-.38-.17zm-1.96 1.75L17 23.94V26h2.06l6.06-6.07zM24 8H8a2 2 0 0 0-2 2v12a2 2 0 0 0 2 2h7v-.89l8.24-8.22c.47-.49 1.12-.76 1.8-.76.34 0 .68.06 1 .19V10c0-1.12-.92-2-2.04-2zm0 4-8 5-8-5v-2l8 5 8-5z"/></symbol><symbol id="icon-phone-header" viewBox="0 0 32 32"><path fill="#5dc381" style="fill:var(--color3,#5dc381)" d="M32 16c0 8.837-7.163 16-16 16S0 24.837 0 16 7.163 0 16 0s16 7.163 16 16z"/><path fill="#fff" style="fill:var(--color4,#fff)" d="M20.552 26.133c-1.44-.053-5.521-.617-9.795-4.89-4.273-4.274-4.836-8.354-4.89-9.795-.08-2.196 1.602-4.329 3.545-5.162.234-.101.49-.139.744-.112s.495.121.701.271c1.6 1.166 2.704 2.93 3.652 4.317a1.503 1.503 0 0 1-.256 1.986l-1.951 1.449a.481.481 0 0 0-.142.616c.442.803 1.228 1.999 2.128 2.899s2.153 1.738 3.012 2.23a.486.486 0 0 0 .644-.162l1.27-1.933a1.503 1.503 0 0 1 2.056-.332c1.407.974 3.049 2.059 4.251 3.598a1.473 1.473 0 0 1 .189 1.485c-.837 1.953-2.955 3.616-5.158 3.535z"/></symbol><symbol id="icon-x" viewBox="0 0 32 32"><path stroke-linejoin="round" stroke-linecap="round" stroke-width="1.524" d="M24 8 8 24M8 8l16 16"/></symbol></defs></svg>