<svg aria-hidden="true" style="position: absolute; width: 0; height: 0; overflow: hidden;" version="1.1" xmlns="http://www.w3.org/2000/svg" xmlns:xlink="http://www.w3.org/1999/xlink">
<defs>
<symbol id="icon-arrow-right" viewBox="0 0 43 32">
<path fill="none" stroke="#6c6b6b" style="stroke: var(--color1, #6c6b6b)" stroke-linejoin="round" stroke-linecap="round" stroke-miterlimit="4" stroke-width="2.6667" d="M8.889 16h24.889"></path>
<path fill="none" stroke="#6c6b6b" style="stroke: var(--color1, #6c6b6b)" stroke-linejoin="round" stroke-linecap="round" stroke-miterlimit="4" stroke-width="2.6667" d="M21.333 6.667l12.444 9.333-12.444 9.333"></path>
</symbol>
<symbol id="icon-leaf" viewBox="0 0 32 32">
<path fill="#7ec384" style="fill: var(--color2, #7ec384)" d="M27.997 4v2.667c0 12.836-7.164 18.667-16 18.667h-2.536c0.283-4.016 1.533-6.447 4.797-9.335 1.605-1.42 1.469-2.24 0.679-1.769-5.445 3.24-8.151 7.619-8.271 14.611l-0.004 0.493h-2.667c0-1.817 0.155-3.467 0.461-4.976-0.307-1.725-0.461-4.067-0.461-7.024 0-7.364 5.969-13.333 13.333-13.333 2.667 0 5.335 1.333 10.668 0z"></path>
</symbol>
<symbol id="icon-logo" viewBox="0 0 32 32">
<path d="M8.222 4.36c2.108-1.408 4.559-2.218 7.091-2.343s5.050 0.441 7.286 1.636c2.236 1.195 4.105 2.975 5.409 5.149s1.992 4.662 1.992 7.197v0.066c-1.766-0.403-3.876-0.686-5.998-0.523-1.334 0.103-2.703 0.386-4 0.945-0.034-0.964-0.414-1.883-1.072-2.588-0.67-0.95-1.68-2.39-0.3-3.64 1.444-1.293 2.708-2.772 3.76-4.4-1.91-1.214-4.127-1.859-6.39-1.86h-0.37l0.050 0.18 0.059 0.107c0.834 1.52 1.738 3.166 1.191 5.443-0.436 1.823-2.139 2.4-3.405 2.828l-0.035 0.012c-0.434 0.114-0.849 0.292-1.23 0.53-0.5 0.67-0.36 1.34-0.1 2.34 0.205 0.498 0.297 1.035 0.269 1.573s-0.174 1.063-0.429 1.537c-0.226 0.328-0.523 0.6-0.87 0.796s-0.733 0.31-1.13 0.334c-0.338-0.003-0.671 0.080-0.969 0.241s-0.549 0.395-0.731 0.679c-0.8 1.070-0.55 3.11-0.39 4.24 1.935 1.783 4.406 2.875 7.027 3.107l0.041 0.003c-0.218 0.64-0.369 1.301-0.452 1.972-2.861-0.303-5.559-1.48-7.728-3.372s-3.701-4.405-4.39-7.198c-0.689-2.793-0.5-5.731 0.54-8.414s2.882-4.979 5.274-6.578zM18.377 27.305c0.773 0.809 2.179 1.695 4.623 1.695 4.294 0 5.638-5.53 6.249-8.043 0.1-0.413 0.18-0.745 0.251-0.957 0.152-0.454 0.543-0.79 0.982-1.044 0.69-0.396 0.706-1.040-0.064-1.242-3.629-0.951-9.030-1.482-12.418 1.905-1.404 1.404-1.382 3.244-1.093 4.587 0.058-0.082 0.117-0.163 0.178-0.245 1.574-2.13 3.879-4.11 6.92-5.168 0.186-0.059 0.388-0.043 0.562 0.045s0.308 0.239 0.372 0.424c0.064 0.184 0.054 0.386-0.029 0.563s-0.23 0.315-0.413 0.384c-2.71 0.943-4.78 2.713-6.207 4.644-1.424 1.928-2.17 3.967-2.291 5.422 0.007 0.191 0.087 0.372 0.223 0.506s0.319 0.211 0.51 0.215c0.191 0.004 0.377-0.065 0.519-0.193s0.23-0.305 0.245-0.496c0.070-0.907 0.36-1.951 0.88-3.003z"></path>
</symbol>
<symbol id="icon-burger-menu" viewBox="0 0 32 32">
<path stroke-linejoin="round" stroke-linecap="round" stroke-miterlimit="4" stroke-width="1.5238" d="M4 16h24"></path>
<path stroke-linejoin="round" stroke-linecap="round" stroke-miterlimit="4" stroke-width="1.5238" d="M4 8h24"></path>
<path stroke-linejoin="round" stroke-linecap="round" stroke-miterlimit="4" stroke-width="1.5238" d="M4 24h24"></path>
</symbol>
<symbol id="icon-email" viewBox="0 0 32 32">
<path fill="#fff" style="fill: var(--color3, #fff)" d="M32 16c0 8.837-7.163 16-16 16s-16-7.163-16-16c0-8.837 7.163-16 16-16s16 7.163 16 16z"></path>
<path fill="#5dc381" style="fill: var(--color4, #5dc381)" d="M25 16.13c-0.15 0.010-0.29 0.060-0.39 0.17l-1 1 2.050 2 1-1c0.22-0.21 0.22-0.56 0-0.77l-1.24-1.23c-0.1-0.104-0.236-0.165-0.38-0.17zM23.040 17.88l-6.040 6.060v2.060h2.060l6.060-6.070zM24 8h-16c-0.53 0-1.039 0.211-1.414 0.586s-0.586 0.884-0.586 1.414v12c0 0.53 0.211 1.039 0.586 1.414s0.884 0.586 1.414 0.586h7v-0.89l8.24-8.22c0.47-0.49 1.12-0.76 1.8-0.76 0.34 0 0.68 0.060 1 0.19v-4.32c0-1.12-0.92-2-2.040-2zM24 12l-8 5-8-5v-2l8 5 8-5z"></path>
</symbol>
<symbol id="icon-phone" viewBox="0 0 32 32">
<path fill="#fff" style="fill: var(--color3, #fff)" d="M32 16c0 8.837-7.163 16-16 16s-16-7.163-16-16c0-8.837 7.163-16 16-16s16 7.163 16 16z"></path>
<path fill="#5dc381" style="fill: var(--color4, #5dc381)" d="M20.552 26.133c-1.44-0.053-5.521-0.617-9.795-4.89-4.273-4.274-4.836-8.354-4.89-9.795-0.080-2.196 1.602-4.329 3.545-5.162 0.234-0.101 0.49-0.139 0.744-0.112s0.495 0.121 0.701 0.271c1.6 1.166 2.704 2.93 3.652 4.317 0.209 0.305 0.298 0.675 0.251 1.042s-0.228 0.702-0.507 0.944l-1.951 1.449c-0.094 0.068-0.161 0.168-0.187 0.281s-0.010 0.232 0.045 0.335c0.442 0.803 1.228 1.999 2.128 2.899s2.153 1.738 3.012 2.23c0.108 0.060 0.235 0.077 0.354 0.047s0.223-0.105 0.29-0.209l1.27-1.933c0.233-0.31 0.578-0.518 0.961-0.58s0.776 0.027 1.095 0.248c1.407 0.974 3.049 2.059 4.251 3.598 0.162 0.208 0.264 0.455 0.298 0.717s-0.004 0.527-0.109 0.768c-0.837 1.953-2.955 3.616-5.158 3.535z"></path>
</symbol>
<symbol id="icon-email-header" viewBox="0 0 32 32">
<path fill="#5dc381" style="fill: var(--color3, #5dc381)" d="M32 16c0 8.837-7.163 16-16 16s-16-7.163-16-16c0-8.837 7.163-16 16-16s16 7.163 16 16z"></path>
<path fill="#fff" style="fill: var(--color4, #fff)" d="M25 16.13c-0.15 0.010-0.29 0.060-0.39 0.17l-1 1 2.050 2 1-1c0.22-0.21 0.22-0.56 0-0.77l-1.24-1.23c-0.1-0.104-0.236-0.165-0.38-0.17zM23.040 17.88l-6.040 6.060v2.060h2.060l6.060-6.070zM24 8h-16c-0.53 0-1.039 0.211-1.414 0.586s-0.586 0.884-0.586 1.414v12c0 0.53 0.211 1.039 0.586 1.414s0.884 0.586 1.414 0.586h7v-0.89l8.24-8.22c0.47-0.49 1.12-0.76 1.8-0.76 0.34 0 0.68 0.060 1 0.19v-4.32c0-1.12-0.92-2-2.040-2zM24 12l-8 5-8-5v-2l8 5 8-5z"></path>
</symbol>
<symbol id="icon-phone-header" viewBox="0 0 32 32">
<path fill="#5dc381" style="fill: var(--color3, #5dc381)" d="M32 16c0 8.837-7.163 16-16 16s-16-7.163-16-16c0-8.837 7.163-16 16-16s16 7.163 16 16z"></path>
<path fill="#fff" style="fill: var(--color4, #fff)" d="M20.552 26.133c-1.44-0.053-5.521-0.617-9.795-4.89-4.273-4.274-4.836-8.354-4.89-9.795-0.080-2.196 1.602-4.329 3.545-5.162 0.234-0.101 0.49-0.139 0.744-0.112s0.495 0.121 0.701 0.271c1.6 1.166 2.704 2.93 3.652 4.317 0.209 0.305 0.298 0.675 0.251 1.042s-0.228 0.702-0.507 0.944l-1.951 1.449c-0.094 0.068-0.161 0.168-0.187 0.281s-0.010 0.232 0.045 0.335c0.442 0.803 1.228 1.999 2.128 2.899s2.153 1.738 3.012 2.23c0.108 0.060 0.235 0.077 0.354 0.047s0.223-0.105 0.29-0.209l1.27-1.933c0.233-0.31 0.578-0.518 0.961-0.58s0.776 0.027 1.095 0.248c1.407 0.974 3.049 2.059 4.251 3.598 0.162 0.208 0.264 0.455 0.298 0.717s-0.004 0.527-0.109 0.768c-0.837 1.953-2.955 3.616-5.158 3.535z"></path>
</symbol>
<symbol id="icon-x" viewBox="0 0 32 32">
<path stroke-linejoin="round" stroke-linecap="round" stroke-miterlimit="4" stroke-width="1.5238" d="M24 8l-16 16"></path>
<path stroke-linejoin="round" stroke-linecap="round" stroke-miterlimit="4" stroke-width="1.5238" d="M8 8l16 16"></path>
</symbol>
</defs>
</svg>
