<svg width="29" height="29" viewBox="0 0 29 29" fill="none" xmlns="http://www.w3.org/2000/svg">
<path d="M6.22201 2.35993C8.32994 0.951448 10.7808 0.141787 13.3129 0.0173626C15.845 -0.107062 18.3634 0.458422 20.5993 1.65346C22.8352 2.84849 24.7046 4.62822 26.008 6.80269C27.3114 8.97715 27.9999 11.4647 28 13.9999V14.0659C26.234 13.6629 24.124 13.3799 22.002 13.5429C20.668 13.6459 19.299 13.9289 18.002 14.4879C17.9684 13.5242 17.5877 12.6051 16.93 11.8999C16.26 10.9499 15.25 9.50993 16.63 8.25993C18.0738 6.9674 19.3384 5.48762 20.39 3.85993C18.4798 2.64583 16.2634 2.00068 14 1.99993H13.63L13.68 2.17993L13.739 2.28693C14.573 3.80693 15.477 5.45293 14.93 7.72993C14.494 9.55293 12.791 10.1299 11.525 10.5579L11.49 10.5699C11.0556 10.6835 10.6409 10.8622 10.26 11.0999C9.76001 11.7699 9.90001 12.4399 10.16 13.4399C10.3649 13.9379 10.4568 14.4751 10.4292 15.0129C10.4015 15.5507 10.2549 16.0756 10 16.5499C9.77438 16.8778 9.477 17.15 9.13046 17.3458C8.78391 17.5416 8.39731 17.6559 8.00001 17.6799C7.66199 17.6771 7.32877 17.76 7.03148 17.9209C6.7342 18.0818 6.48253 18.3154 6.30001 18.5999C5.50001 19.6699 5.75001 21.7099 5.91001 22.8399C7.84521 24.6228 10.316 25.7152 12.937 25.9469L12.978 25.9499C12.76 26.59 12.6086 27.2508 12.526 27.9219C9.66483 27.6188 6.96652 26.4415 4.79828 24.5502C2.63003 22.6589 1.09715 20.1455 0.408231 17.352C-0.28069 14.5585 -0.0921925 11.6206 0.948072 8.93806C1.98834 6.25551 3.82985 3.95861 6.22201 2.35993ZM16.377 25.3049C17.15 26.1139 18.556 26.9999 21 26.9999C25.294 26.9999 26.638 21.4699 27.249 18.9569C27.349 18.5439 27.429 18.2119 27.5 17.9999C27.652 17.5459 28.043 17.2099 28.482 16.9559C29.172 16.5599 29.188 15.9159 28.418 15.7139C24.789 14.7629 19.388 14.2319 16 17.6189C14.596 19.0229 14.618 20.8629 14.907 22.2059C14.965 22.1239 15.024 22.0429 15.085 21.9609C16.659 19.8309 18.964 17.8509 22.005 16.7929C22.1911 16.7341 22.3928 16.7502 22.5672 16.8377C22.7416 16.9252 22.8751 17.0772 22.9393 17.2615C23.0034 17.4458 22.9932 17.6478 22.9108 17.8247C22.8285 18.0016 22.6804 18.1394 22.498 18.2089C19.788 19.1519 17.718 20.9219 16.291 22.8529C14.867 24.7809 14.121 26.8199 14 28.2749C14.0071 28.466 14.087 28.6472 14.2232 28.7813C14.3594 28.9155 14.5418 28.9926 14.733 28.9968C14.9241 29.001 15.1097 28.9321 15.2517 28.804C15.3937 28.676 15.4815 28.4985 15.497 28.3079C15.567 27.4009 15.857 26.3569 16.377 25.3049Z" fill="#5DC381"/>
</svg>
